<svg width="24" height="24" viewBox="0 0 24 24" fill="none" xmlns="http://www.w3.org/2000/svg">
<g opacity="0.28">
<path d="M10.2427 1.36917C9.89427 0.940653 9.26444 0.875723 8.83593 1.22414C8.40742 1.57256 8.34249 2.20239 8.69091 2.6309C9.73103 3.91013 10.0674 5.63406 9.55083 7.1838C9.37618 7.70775 9.65934 8.27407 10.1833 8.44872C10.7072 8.62336 11.2735 8.3402 11.4482 7.81626C12.1888 5.59451 11.6988 3.16001 10.2427 1.36917Z" fill="#5D35A7"/>
<path d="M6.71057 9.13889C7.11713 9.51269 7.1437 10.1453 6.7699 10.5519C6.72516 10.6005 6.6037 10.7692 6.41405 11.1071C6.39821 11.1354 6.38214 11.1643 6.36585 11.194C6.84196 12.2741 7.80453 13.6192 9.09239 14.907C10.3797 16.1943 11.7241 17.1566 12.804 17.6329C12.8332 17.6169 12.8618 17.6011 12.8897 17.5856C13.2308 17.395 13.3998 17.2734 13.4475 17.2295C13.8541 16.8557 14.4867 16.8823 14.8605 17.2888C15.2343 17.6954 15.2078 18.328 14.8012 18.7018C14.5677 18.9165 14.2196 19.1335 13.8652 19.3315C13.4887 19.5419 13.0276 19.7729 12.5148 20.0095C11.4888 20.4831 10.2204 20.9954 8.94095 21.4267C7.66915 21.8554 6.34656 22.2176 5.22311 22.371C4.6638 22.4474 4.10996 22.4785 3.61628 22.4211C3.14508 22.3662 2.57468 22.2133 2.15839 21.7784C1.75178 21.3536 1.61165 20.7896 1.56356 20.3189C1.51316 19.8256 1.54805 19.2736 1.62747 18.7148C1.78688 17.593 2.15082 16.278 2.57988 15.0144C3.0114 13.7435 3.52216 12.4858 3.99409 11.4682C4.22993 10.9596 4.46013 10.5022 4.66991 10.1284C4.86756 9.77617 5.08378 9.43079 5.2976 9.19822C5.6714 8.79165 6.30401 8.76509 6.71057 9.13889Z" fill="#5D35A7"/>
<path d="M15.9993 11C15.447 11 14.9993 11.4477 14.9993 12C14.9993 12.5523 15.447 13 15.9993 13H16.0093C16.5616 13 17.0093 12.5523 17.0093 12C17.0093 11.4477 16.5616 11 16.0093 11H15.9993Z" fill="#5D35A7"/>
<path d="M16.8581 14.0105C19.0444 13.6981 21.4747 14.182 22.857 16.4859C23.1412 16.9595 22.9876 17.5738 22.514 17.8579C22.0404 18.1421 21.4262 17.9885 21.142 17.5149C20.3317 16.1643 18.8865 15.741 17.1409 15.9904C16.5942 16.0685 16.0877 15.6886 16.0096 15.1418C15.9315 14.5951 16.3114 14.0886 16.8581 14.0105Z" fill="#5D35A7"/>
</g>
<path d="M12.9998 4C12.9998 3.44772 13.4475 3 13.9998 3H14.0098C14.562 3 15.0098 3.44772 15.0098 4C15.0098 4.55228 14.562 5 14.0098 5H13.9998C13.4475 5 12.9998 4.55228 12.9998 4Z" fill="#5D35A7"/>
<path d="M22.9584 4.06218C23.1172 4.59115 22.8171 5.14866 22.2881 5.30741C19.064 6.27496 16.2896 7.94737 14.2999 10.6004C13.9685 11.0422 13.3417 11.1318 12.8999 10.8004C12.458 10.469 12.3685 9.84221 12.6999 9.40038C15.002 6.3308 18.1791 4.45239 21.7132 3.39181C22.2422 3.23306 22.7997 3.5332 22.9584 4.06218Z" fill="#5D35A7"/>
<path d="M8.95425 8.59887C10.0976 9.17055 11.4019 10.1456 12.6284 11.372C13.8548 12.5984 14.8298 13.9027 15.4015 15.0461C15.6848 15.6128 15.8955 16.1921 15.9598 16.7344C16.0224 17.2624 15.9616 17.9383 15.4568 18.443C15.0731 18.8267 14.5828 18.9548 14.1503 18.9658C13.2948 18.9876 12.304 18.5686 11.3853 18.015C10.4236 17.4355 9.38156 16.6105 8.38572 15.6146C7.38988 14.6188 6.56482 13.5767 5.9853 12.615C5.43174 11.6964 5.01272 10.7056 5.03451 9.85004C5.04553 9.41754 5.17365 8.92719 5.55729 8.54355C6.06208 8.03876 6.73798 7.97796 7.26597 8.04054C7.80821 8.1048 8.3875 8.31549 8.95425 8.59887Z" fill="#5D35A7"/>
<path d="M17 19C17 18.4477 17.4477 18 18 18H18.01C18.5623 18 19.01 18.4477 19.01 19C19.01 19.5523 18.5623 20 18.01 20H18C17.4477 20 17 19.5523 17 19Z" fill="#5D35A7"/>
<path d="M6 4C5.44772 4 5 4.44772 5 5C5 5.55228 5.44772 6 6 6H6.01C6.56228 6 7.01 5.55228 7.01 5C7.01 4.44772 6.56228 4 6.01 4H6Z" fill="#5D35A7"/>
<path d="M21 9C20.4477 9 20 9.44772 20 10C20 10.5523 20.4477 11 21 11H21.01C21.5623 11 22.01 10.5523 22.01 10C22.01 9.44772 21.5623 9 21.01 9H21Z" fill="#5D35A7"/>
</svg>
