<svg width="24" height="24" viewBox="0 0 24 24" fill="none" xmlns="http://www.w3.org/2000/svg">
<path opacity="0.28" d="M15.4234 12.9997H19.8945C21.2581 12.9997 23.3623 11.3126 21.8448 10.0028C17.4998 5.99971 10.4998 5.99971 5.99985 10.0864M15.4234 12.9997C15.5518 12.8434 15.664 12.6715 15.7568 12.4859C16.0982 11.8031 15.6016 10.9997 14.8382 10.9997H9.99985M15.4234 12.9997C14.9099 13.6247 14.1371 13.9997 13.3074 13.9997H12.1851C12.0633 13.9997 11.9431 14.0281 11.8341 14.0826C10.0283 14.9855 8.00072 15.3464 5.99609 15.1233C5.99858 15.0824 5.99985 15.0412 5.99985 14.9997V10.0864M5.99985 10.0864V9.99971" stroke="#28ACB8" stroke-width="2" stroke-linecap="round" stroke-linejoin="round"/>
<path d="M1 15C1 16.6569 2.34315 18 4 18C5.65685 18 7 16.6569 7 15V10C7 8.34315 5.65685 7 4 7C2.34315 7 1 8.34315 1 10V15Z" fill="#28ACB8"/>
</svg>
