<svg width="24" height="24" viewBox="0 0 24 24" fill="none" xmlns="http://www.w3.org/2000/svg">
<path opacity="0.28" d="M15.2108 13.5919H19.5792C20.9115 13.5919 22.9674 11.7349 21.4848 10.2932C17.2396 5.88704 10.4003 5.88704 6.00367 10.3853M15.2108 13.5919C15.3362 13.4199 15.4458 13.2307 15.5365 13.0264C15.8701 12.2748 15.385 11.3905 14.6391 11.3905H9.91181M15.2108 13.5919C14.7091 14.2798 13.9541 14.6926 13.1434 14.6926H12.0469C11.9279 14.6926 11.8104 14.7238 11.704 14.7838C9.93957 15.7777 7.95859 16.1749 6 15.9293C6.00243 15.8843 6.00367 15.839 6.00367 15.7933V10.3853M6.00367 10.3853V10.2898" stroke="#28ACB8" stroke-width="2" stroke-linecap="round" stroke-linejoin="round"/>
<path d="M1 15.7273C1 17.5347 2.34315 19 4 19C5.65685 19 7 17.5347 7 15.7273V10.2727C7 8.46525 5.65685 7 4 7C2.34315 7 1 8.46525 1 10.2727V15.7273Z" fill="#28ACB8"/>
</svg>
